<?xml version="1.0" encoding="us-ascii" standalone="no"?><svg xmlns="http://www.w3.org/2000/svg" xmlns:xlink="http://www.w3.org/1999/xlink" contentStyleType="text/css" height="958px" preserveAspectRatio="none" style="width:1274px;height:958px;background:#FFFFFF;" version="1.1" viewBox="0 0 1274 958" width="1274px" zoomAndPan="magnify"><defs/><g><rect fill="#B0C4DE" height="946.8457" style="stroke:#181818;stroke-width:0.5;" width="395.5" x="423" y="6"/><text fill="#000000" font-family="sans-serif" font-size="13" font-weight="bold" lengthAdjust="spacing" textLength="76" x="575.25" y="18.5684">Payee DFSP</text><text fill="#000000" font-family="sans-serif" font-size="13" font-weight="bold" lengthAdjust="spacing" textLength="115" x="563.25" y="33.8789">Payment Manger</text><rect fill="#00008B" height="185.7949" style="stroke:#181818;stroke-width:1.0;" width="10" x="748" y="298.5938"/><rect fill="#00008B" height="166.8633" style="stroke:#181818;stroke-width:1.0;" width="10" x="748" y="733.4941"/><line style="stroke:#181818;stroke-width:0.5;stroke-dasharray:5.0,5.0;" x1="189" x2="189" y1="72.1094" y2="918.3574"/><line style="stroke:#181818;stroke-width:0.5;stroke-dasharray:5.0,5.0;" x1="504" x2="504" y1="72.1094" y2="918.3574"/><line style="stroke:#181818;stroke-width:0.5;stroke-dasharray:5.0,5.0;" x1="752.5" x2="752.5" y1="72.1094" y2="918.3574"/><line style="stroke:#181818;stroke-width:0.5;stroke-dasharray:5.0,5.0;" x1="1028.5" x2="1028.5" y1="72.1094" y2="918.3574"/><rect fill="#8B0000" height="30.4883" rx="2.5" ry="2.5" style="stroke:#181818;stroke-width:0.5;" width="78" x="150" y="40.6211"/><text fill="#FFFFFF" font-family="sans-serif" font-size="14" lengthAdjust="spacing" textLength="64" x="157" y="61.1563">Mojaloop</text><rect fill="#8B0000" height="30.4883" rx="2.5" ry="2.5" style="stroke:#181818;stroke-width:0.5;" width="78" x="150" y="917.3574"/><text fill="#FFFFFF" font-family="sans-serif" font-size="14" lengthAdjust="spacing" textLength="64" x="157" y="937.8926">Mojaloop</text><rect fill="#BDB76B" height="30.4883" rx="2.5" ry="2.5" style="stroke:#181818;stroke-width:0.5;" width="154" x="427" y="40.6211"/><text fill="#FFFFFF" font-family="sans-serif" font-size="14" lengthAdjust="spacing" textLength="140" x="434" y="61.1563">Mojaloop Connector</text><rect fill="#BDB76B" height="30.4883" rx="2.5" ry="2.5" style="stroke:#181818;stroke-width:0.5;" width="154" x="427" y="917.3574"/><text fill="#FFFFFF" font-family="sans-serif" font-size="14" lengthAdjust="spacing" textLength="140" x="434" y="937.8926">Mojaloop Connector</text><rect fill="#00008B" height="30.4883" rx="2.5" ry="2.5" style="stroke:#181818;stroke-width:0.5;" width="123" x="691.5" y="40.6211"/><text fill="#FFFFFF" font-family="sans-serif" font-size="14" lengthAdjust="spacing" textLength="109" x="698.5" y="61.1563">Core Connector</text><rect fill="#00008B" height="30.4883" rx="2.5" ry="2.5" style="stroke:#181818;stroke-width:0.5;" width="123" x="691.5" y="917.3574"/><text fill="#FFFFFF" font-family="sans-serif" font-size="14" lengthAdjust="spacing" textLength="109" x="698.5" y="937.8926">Core Connector</text><rect fill="#006400" height="30.4883" rx="2.5" ry="2.5" style="stroke:#181818;stroke-width:0.5;" width="167" x="945.5" y="40.6211"/><text fill="#FFFFFF" font-family="sans-serif" font-size="14" lengthAdjust="spacing" textLength="153" x="952.5" y="61.1563">Core Banking Solution</text><rect fill="#006400" height="30.4883" rx="2.5" ry="2.5" style="stroke:#181818;stroke-width:0.5;" width="167" x="945.5" y="917.3574"/><text fill="#FFFFFF" font-family="sans-serif" font-size="14" lengthAdjust="spacing" textLength="153" x="952.5" y="937.8926">Core Banking Solution</text><rect fill="#00008B" height="185.7949" style="stroke:#181818;stroke-width:1.0;" width="10" x="748" y="298.5938"/><rect fill="#00008B" height="166.8633" style="stroke:#181818;stroke-width:1.0;" width="10" x="748" y="733.4941"/><line style="stroke:#181818;stroke-width:1.0;" x1="189" x2="231" y1="115.2305" y2="115.2305"/><line style="stroke:#181818;stroke-width:1.0;" x1="231" x2="231" y1="115.2305" y2="128.2305"/><line style="stroke:#181818;stroke-width:1.0;" x1="190" x2="231" y1="128.2305" y2="128.2305"/><polygon fill="#181818" points="200,124.2305,190,128.2305,200,132.2305,196,128.2305" style="stroke:#181818;stroke-width:1.0;"/><text fill="#000000" font-family="sans-serif" font-size="13" font-weight="bold" lengthAdjust="spacing" textLength="19" x="196" y="110.4883">[1]</text><text fill="#000000" font-family="sans-serif" font-size="13" lengthAdjust="spacing" textLength="159" x="219" y="110.4883">Pass Quote to Payer DFSP</text><path d="M5,87.1094 L5,142.1094 L184,142.1094 L184,97.1094 L174,87.1094 L5,87.1094 " fill="#FEFFDD" style="stroke:#181818;stroke-width:0.5;"/><path d="M174,87.1094 L174,97.1094 L184,97.1094 L174,87.1094 " fill="#FEFFDD" style="stroke:#181818;stroke-width:0.5;"/><text fill="#000000" font-family="sans-serif" font-size="13" lengthAdjust="spacing" textLength="113" x="11" y="104.6777">Obtain consent to</text><text fill="#000000" font-family="sans-serif" font-size="13" lengthAdjust="spacing" textLength="158" x="11" y="119.9883">proceed with the transfer</text><text fill="#000000" font-family="sans-serif" font-size="13" lengthAdjust="spacing" textLength="19" x="11" y="135.2988">Via</text><text fill="#000000" font-family="sans-serif" font-size="13" font-weight="bold" lengthAdjust="spacing" textLength="35" x="34" y="135.2988">POST</text><text fill="#000000" font-family="sans-serif" font-size="13" lengthAdjust="spacing" textLength="63" x="73" y="135.2988">/transfers</text><line style="stroke:#181818;stroke-width:1.0;" x1="189" x2="231" y1="169.3516" y2="169.3516"/><line style="stroke:#181818;stroke-width:1.0;" x1="231" x2="231" y1="169.3516" y2="182.3516"/><line style="stroke:#181818;stroke-width:1.0;" x1="190" x2="231" y1="182.3516" y2="182.3516"/><polygon fill="#181818" points="200,178.3516,190,182.3516,200,186.3516,196,182.3516" style="stroke:#181818;stroke-width:1.0;"/><text fill="#000000" font-family="sans-serif" font-size="13" font-weight="bold" lengthAdjust="spacing" textLength="19" x="196" y="164.6094">[2]</text><text fill="#000000" font-family="sans-serif" font-size="13" lengthAdjust="spacing" textLength="179" x="219" y="164.6094">Perform liquidity(NDC)check</text><line style="stroke:#181818;stroke-width:1.0;" x1="189" x2="231" y1="211.6621" y2="211.6621"/><line style="stroke:#181818;stroke-width:1.0;" x1="231" x2="231" y1="211.6621" y2="224.6621"/><line style="stroke:#181818;stroke-width:1.0;" x1="190" x2="231" y1="224.6621" y2="224.6621"/><polygon fill="#181818" points="200,220.6621,190,224.6621,200,228.6621,196,224.6621" style="stroke:#181818;stroke-width:1.0;"/><text fill="#000000" font-family="sans-serif" font-size="13" font-weight="bold" lengthAdjust="spacing" textLength="19" x="196" y="206.9199">[3]</text><text fill="#000000" font-family="sans-serif" font-size="13" lengthAdjust="spacing" textLength="90" x="219" y="206.9199">Reserve Funds</text><polygon fill="#181818" points="492,249.9727,502,253.9727,492,257.9727,496,253.9727" style="stroke:#181818;stroke-width:1.0;"/><line style="stroke:#181818;stroke-width:1.0;" x1="189" x2="498" y1="253.9727" y2="253.9727"/><text fill="#000000" font-family="sans-serif" font-size="13" font-weight="bold" lengthAdjust="spacing" textLength="19" x="196" y="249.2305">[4]</text><text fill="#000000" font-family="sans-serif" font-size="13" font-weight="bold" lengthAdjust="spacing" textLength="35" x="219" y="249.2305">POST</text><text fill="#000000" font-family="sans-serif" font-size="13" lengthAdjust="spacing" textLength="63" x="258" y="249.2305">/transfers</text><polygon fill="#181818" points="736,294.5938,746,298.5938,736,302.5938,740,298.5938" style="stroke:#181818;stroke-width:1.0;"/><line style="stroke:#181818;stroke-width:1.0;" x1="504" x2="742" y1="298.5938" y2="298.5938"/><text fill="#000000" font-family="sans-serif" font-size="13" font-weight="bold" lengthAdjust="spacing" textLength="19" x="511" y="286.1963">[5]</text><text fill="#000000" font-family="sans-serif" font-size="13" lengthAdjust="spacing" textLength="161" x="534" y="278.541">Create &amp; Reserve Transfer</text><text fill="#000000" font-family="sans-serif" font-size="13" lengthAdjust="spacing" textLength="4" x="534" y="293.8516">&#160;</text><text fill="#000000" font-family="sans-serif" font-size="13" font-weight="bold" lengthAdjust="spacing" textLength="35" x="538" y="293.8516">POST</text><text fill="#000000" font-family="sans-serif" font-size="13" lengthAdjust="spacing" textLength="63" x="577" y="293.8516">/transfers</text><polygon fill="#181818" points="1017,372.8359,1027,376.8359,1017,380.8359,1021,376.8359" style="stroke:#181818;stroke-width:1.0;"/><line style="stroke:#181818;stroke-width:1.0;" x1="758" x2="1023" y1="376.8359" y2="376.8359"/><text fill="#000000" font-family="sans-serif" font-size="13" font-weight="bold" lengthAdjust="spacing" textLength="19" x="765" y="372.0938">[6]</text><text fill="#000000" font-family="sans-serif" font-size="13" lengthAdjust="spacing" textLength="224" x="788" y="372.0938">Reserve transfer into payee account</text><path d="M1034,311.5938 L1034,428.5938 L1267,428.5938 L1267,321.5938 L1257,311.5938 L1034,311.5938 " fill="#FEFFDD" style="stroke:#181818;stroke-width:0.5;"/><path d="M1257,311.5938 L1257,321.5938 L1267,321.5938 L1257,311.5938 " fill="#FEFFDD" style="stroke:#181818;stroke-width:0.5;"/><text fill="#000000" font-family="sans-serif" font-size="13" lengthAdjust="spacing" textLength="178" x="1040" y="329.1621">The reserve transfer into the</text><text fill="#000000" font-family="sans-serif" font-size="13" lengthAdjust="spacing" textLength="182" x="1040" y="344.4727">payee's account ensures that</text><text fill="#000000" font-family="sans-serif" font-size="13" lengthAdjust="spacing" textLength="208" x="1040" y="359.7832">all necessary account validations</text><text fill="#000000" font-family="sans-serif" font-size="13" lengthAdjust="spacing" textLength="195" x="1040" y="375.0938">are completed to confirm there</text><text fill="#000000" font-family="sans-serif" font-size="13" lengthAdjust="spacing" textLength="142" x="1040" y="390.4043">are no impediments to</text><text fill="#000000" font-family="sans-serif" font-size="13" lengthAdjust="spacing" textLength="153" x="1040" y="405.7148">successfully completing</text><text fill="#000000" font-family="sans-serif" font-size="13" lengthAdjust="spacing" textLength="77" x="1040" y="421.0254">the transfer.</text><polygon fill="#181818" points="769,451.0781,759,455.0781,769,459.0781,765,455.0781" style="stroke:#181818;stroke-width:1.0;"/><line style="stroke:#181818;stroke-width:1.0;stroke-dasharray:2.0,2.0;" x1="763" x2="1028" y1="455.0781" y2="455.0781"/><text fill="#000000" font-family="sans-serif" font-size="13" font-weight="bold" lengthAdjust="spacing" textLength="19" x="775" y="450.3359">[7]</text><text fill="#000000" font-family="sans-serif" font-size="13" lengthAdjust="spacing" textLength="190" x="798" y="450.3359">response (homeTransactionId)</text><polygon fill="#181818" points="515,480.3887,505,484.3887,515,488.3887,511,484.3887" style="stroke:#181818;stroke-width:1.0;"/><line style="stroke:#181818;stroke-width:1.0;stroke-dasharray:2.0,2.0;" x1="509" x2="752" y1="484.3887" y2="484.3887"/><text fill="#000000" font-family="sans-serif" font-size="13" font-weight="bold" lengthAdjust="spacing" textLength="19" x="521" y="479.6465">[8]</text><text fill="#000000" font-family="sans-serif" font-size="13" lengthAdjust="spacing" textLength="190" x="544" y="479.6465">response (homeTransactionId)</text><line style="stroke:#181818;stroke-width:1.0;" x1="504" x2="546" y1="513.6992" y2="513.6992"/><line style="stroke:#181818;stroke-width:1.0;" x1="546" x2="546" y1="513.6992" y2="526.6992"/><line style="stroke:#181818;stroke-width:1.0;" x1="505" x2="546" y1="526.6992" y2="526.6992"/><polygon fill="#181818" points="515,522.6992,505,526.6992,515,530.6992,511,526.6992" style="stroke:#181818;stroke-width:1.0;"/><text fill="#000000" font-family="sans-serif" font-size="13" font-weight="bold" lengthAdjust="spacing" textLength="19" x="511" y="508.957">[9]</text><text fill="#000000" font-family="sans-serif" font-size="13" lengthAdjust="spacing" textLength="123" x="534" y="508.957">Generate Fulfilment</text><polygon fill="#181818" points="200,567.3203,190,571.3203,200,575.3203,196,571.3203" style="stroke:#181818;stroke-width:1.0;"/><line style="stroke:#181818;stroke-width:1.0;" x1="194" x2="503" y1="571.3203" y2="571.3203"/><text fill="#000000" font-family="sans-serif" font-size="13" font-weight="bold" lengthAdjust="spacing" textLength="28" x="206" y="558.9229">[10]</text><text fill="#000000" font-family="sans-serif" font-size="13" font-weight="bold" lengthAdjust="spacing" textLength="27" x="238" y="551.2676">PUT</text><text fill="#000000" font-family="sans-serif" font-size="13" lengthAdjust="spacing" textLength="90" x="269" y="551.2676">/transfers/{id}</text><text fill="#000000" font-family="sans-serif" font-size="13" lengthAdjust="spacing" textLength="255" x="242" y="566.5781">(TransferStatus='RESERVED', fulfullment)</text><line style="stroke:#181818;stroke-width:1.0;" x1="189" x2="231" y1="600.6309" y2="600.6309"/><line style="stroke:#181818;stroke-width:1.0;" x1="231" x2="231" y1="600.6309" y2="613.6309"/><line style="stroke:#181818;stroke-width:1.0;" x1="190" x2="231" y1="613.6309" y2="613.6309"/><polygon fill="#181818" points="200,609.6309,190,613.6309,200,617.6309,196,613.6309" style="stroke:#181818;stroke-width:1.0;"/><text fill="#000000" font-family="sans-serif" font-size="13" font-weight="bold" lengthAdjust="spacing" textLength="28" x="196" y="595.8887">[11]</text><text fill="#000000" font-family="sans-serif" font-size="13" lengthAdjust="spacing" textLength="191" x="228" y="595.8887">Commit funds in DFSP ledgers</text><polygon fill="#181818" points="492,654.252,502,658.252,492,662.252,496,658.252" style="stroke:#181818;stroke-width:1.0;"/><line style="stroke:#181818;stroke-width:1.0;" x1="189" x2="498" y1="658.252" y2="658.252"/><text fill="#000000" font-family="sans-serif" font-size="13" font-weight="bold" lengthAdjust="spacing" textLength="28" x="196" y="645.8545">[12]</text><text fill="#000000" font-family="sans-serif" font-size="13" font-weight="bold" lengthAdjust="spacing" textLength="46" x="228" y="638.1992">PATCH</text><text fill="#000000" font-family="sans-serif" font-size="13" lengthAdjust="spacing" textLength="90" x="278" y="638.1992">/transfers/{id}</text><text fill="#000000" font-family="sans-serif" font-size="13" lengthAdjust="spacing" textLength="193" x="228" y="653.5098">(TransferStatus='COMMITTED')</text><polygon fill="#181818" points="736,729.4941,746,733.4941,736,737.4941,740,733.4941" style="stroke:#181818;stroke-width:1.0;"/><line style="stroke:#181818;stroke-width:1.0;" x1="504" x2="742" y1="733.4941" y2="733.4941"/><text fill="#000000" font-family="sans-serif" font-size="13" font-weight="bold" lengthAdjust="spacing" textLength="28" x="511" y="705.7861">[13]</text><text fill="#000000" font-family="sans-serif" font-size="13" lengthAdjust="spacing" textLength="106" x="543" y="682.8203">Commit Transfer</text><text fill="#000000" font-family="sans-serif" font-size="13" lengthAdjust="spacing" textLength="4" x="543" y="698.1309">&#160;</text><text fill="#000000" font-family="sans-serif" font-size="13" font-weight="bold" lengthAdjust="spacing" textLength="46" x="547" y="698.1309">PATCH</text><text fill="#000000" font-family="sans-serif" font-size="13" lengthAdjust="spacing" textLength="90" x="597" y="698.1309">/transfers/{id}</text><text fill="#000000" font-family="sans-serif" font-size="13" lengthAdjust="spacing" textLength="193" x="543" y="713.4414">(TransferStatus='COMMITTED',</text><text fill="#000000" font-family="sans-serif" font-size="13" lengthAdjust="spacing" textLength="125" x="547" y="728.752">homeTransactionId)</text><polygon fill="#181818" points="1017,777.1152,1027,781.1152,1017,785.1152,1021,781.1152" style="stroke:#181818;stroke-width:1.0;"/><line style="stroke:#181818;stroke-width:1.0;" x1="758" x2="1023" y1="781.1152" y2="781.1152"/><text fill="#000000" font-family="sans-serif" font-size="13" font-weight="bold" lengthAdjust="spacing" textLength="28" x="765" y="776.373">[14]</text><text fill="#000000" font-family="sans-serif" font-size="13" lengthAdjust="spacing" textLength="90" x="797" y="776.373">Commit funds</text><path d="M1034,746.4941 L1034,801.4941 L1261,801.4941 L1261,756.4941 L1251,746.4941 L1034,746.4941 " fill="#FEFFDD" style="stroke:#181818;stroke-width:0.5;"/><path d="M1251,746.4941 L1251,756.4941 L1261,756.4941 L1251,746.4941 " fill="#FEFFDD" style="stroke:#181818;stroke-width:0.5;"/><text fill="#000000" font-family="sans-serif" font-size="13" lengthAdjust="spacing" textLength="130" x="1040" y="764.0625">Replace with CBS API</text><text fill="#000000" font-family="sans-serif" font-size="13" lengthAdjust="spacing" textLength="198" x="1048" y="779.373">to commit funds transfer funds</text><text fill="#000000" font-family="sans-serif" font-size="13" lengthAdjust="spacing" textLength="106" x="1048" y="794.6836">to Payee account</text><line style="stroke:#181818;stroke-width:1.0;" x1="1029" x2="1071" y1="828.7363" y2="828.7363"/><line style="stroke:#181818;stroke-width:1.0;" x1="1071" x2="1071" y1="828.7363" y2="841.7363"/><line style="stroke:#181818;stroke-width:1.0;" x1="1030" x2="1071" y1="841.7363" y2="841.7363"/><polygon fill="#181818" points="1040,837.7363,1030,841.7363,1040,845.7363,1036,841.7363" style="stroke:#181818;stroke-width:1.0;"/><text fill="#000000" font-family="sans-serif" font-size="13" font-weight="bold" lengthAdjust="spacing" textLength="28" x="1036" y="823.9941">[15]</text><text fill="#000000" font-family="sans-serif" font-size="13" lengthAdjust="spacing" textLength="143" x="1068" y="823.9941">Release funds to Payee</text><polygon fill="#181818" points="769,867.0469,759,871.0469,769,875.0469,765,871.0469" style="stroke:#181818;stroke-width:1.0;"/><line style="stroke:#181818;stroke-width:1.0;stroke-dasharray:2.0,2.0;" x1="763" x2="1028" y1="871.0469" y2="871.0469"/><text fill="#000000" font-family="sans-serif" font-size="13" font-weight="bold" lengthAdjust="spacing" textLength="28" x="775" y="866.3047">[16]</text><text fill="#000000" font-family="sans-serif" font-size="13" lengthAdjust="spacing" textLength="57" x="807" y="866.3047">response</text><polygon fill="#181818" points="515,896.3574,505,900.3574,515,904.3574,511,900.3574" style="stroke:#181818;stroke-width:1.0;"/><line style="stroke:#181818;stroke-width:1.0;stroke-dasharray:2.0,2.0;" x1="509" x2="752" y1="900.3574" y2="900.3574"/><text fill="#000000" font-family="sans-serif" font-size="13" font-weight="bold" lengthAdjust="spacing" textLength="28" x="521" y="895.6152">[17]</text><text fill="#000000" font-family="sans-serif" font-size="13" lengthAdjust="spacing" textLength="57" x="553" y="895.6152">response</text><!--SRC=[dLHTJzim57tthxWgqaeh6Dihsf30fGnj7LtJyJBsO9BRngjZPxO3gn3_VTSE2Gtjj6cfrBJsFVVZd6CVzOVXOOUTXyN5OV-8iJvac2fX4Rpq2kb_VCDKh157usHwcQ5GK-4zMZstGhi5sWsKIBsnZhcLrAMmeW3wzZALfT0U7XZ0s6ZFZJ8MxdFfaJsopOZUnFmGofYo1y91SYzzciFUIDZL33DsQtv13w1k1a8tDvf-5qZ8YT1Bj3tO-oINkKyyeZfJ5LB5dVc16wqnD1ihJNXTvMCkLl8bXXiQh1lFETI0M0Dr1jGRsqQT2KrCB24nglBIw1fybjJW2uke6HELDxegRj72M_hqtjsUV7lplSTOFV_XIVq-fhcTWo-LyQIEYIpOo0BJOKdXmhEhMo-aXjHe5rYXC5PQao9cG4boy3bX6zckfO3XS7gLp8T3E6gMNPmdf2GY09eceEq2xSBO0fJyMSbC-lN-vn4Vf3ccgmwWYP-XGtk7CAvqvZeH4twyitw8cV334qxxtAAWuLwrQHhJtUXTM8XWSg6y2p3EDsGAEpoaFKkUksgG83MHLKPdYJGr5R5Nysg3eKBUEN5dTy82gz4rXEwx5e_QLGIWRH4J2AM0J8JE2Rjke-w4afa8xeZTXrEKcg9Kw4aqIavQBYJnJKKiDX7QW2nAp6Gmluiw0xWg3SaNbLBh9aTm7srjwlwwAp3HSLXpJRsMmJYmdvi28z61IQCliq73NgtQNoFfbdZMe1KqG2zGemthuqejf0hzj_kDPKZOhrrTZnvazaYIxpVo9rxuohtlpywJyzdr-QX_03Ht63ra7Enq8ZT58Jt5aH59k7XswDXaoyPqBunvEkSVjhk06xtL1R-QJ2xdSsfZq7LlNR7hsVz9Uq3GRQh_sUsToL_OUeQb4YdMzqEucqwdbn4TlRU1Qps_Q4_oqpNK7fbjPpMdJQ4WkpmbQb1_yDzkh-tmrMy0]--></g></svg>